<svg xmlns="http://www.w3.org/2000/svg" width="104" height="32" fill="none" viewBox="0 0 104 32"><path fill="#d4af37" d="M0 23V9l11 7zm31.192-4.287-1.402.336 3.998-10.554q.276-.736.64-1.015.362-.28 1.007-.28h4.107q.424 0 .629.17a.58.58 0 0 1 .205.473q0 .262-.136.438a.8.8 0 0 1-.398.265l-.555.166q-.382.117-.516.325-.134.207-.105.65l.848 11.94q.024.422.158.593.135.17.46.271l.547.163a.7.7 0 0 1 .375.25.7.7 0 0 1 .124.417.64.64 0 0 1-.204.486q-.204.193-.628.193h-6.284q-.432 0-.637-.176a.59.59 0 0 1-.205-.467q0-.247.12-.426.12-.18.424-.277l.554-.163q.385-.12.52-.307.134-.186.11-.563l-.944-12.359 1.266-.114-4.95 13.181q-.261.712-.538.912a1.1 1.1 0 0 1-.656.2q-.276 0-.504-.07-.228-.069-.427-.318t-.413-.786L22.71 9.552l1.217-.33-.981 11.965q-.046.55.243.841.288.292.76.514l.468.192q.19.09.295.23.106.142.106.366 0 .3-.2.486-.201.184-.626.184h-3.731q-.424 0-.625-.176a.6.6 0 0 1-.2-.467q0-.296.164-.453.165-.156.43-.276l.371-.138q.41-.163.679-.467.27-.303.315-.848l.911-11.052q.056-.654-.088-.97-.143-.317-.54-.441l-.535-.156a.9.9 0 0 1-.42-.268.68.68 0 0 1-.137-.44q0-.648.842-.648h4.073q.599 0 .96.247.364.247.655 1zm19.466-11.95q2.028 0 3.65.645A7.8 7.8 0 0 1 57.08 9.24a8.1 8.1 0 0 1 1.761 2.823q.613 1.637.613 3.633 0 1.865-.608 3.462a8.2 8.2 0 0 1-1.744 2.784 7.9 7.9 0 0 1-2.74 1.847q-1.602.66-3.59.66-2.013 0-3.632-.645a7.8 7.8 0 0 1-2.77-1.831 8.1 8.1 0 0 1-1.764-2.828q-.613-1.64-.613-3.643 0-1.86.607-3.453a8.2 8.2 0 0 1 1.744-2.78 7.9 7.9 0 0 1 2.735-1.845q1.6-.66 3.58-.66m4.058 11.685q0-1.612-.277-3.126a16.5 16.5 0 0 0-.763-2.813 11.6 11.6 0 0 0-1.123-2.275q-.638-.976-1.364-1.527t-1.485-.55q-.915 0-1.573.536-.658.534-1.01 1.557-.352 1.021-.352 2.498 0 1.617.276 3.135.275 1.517.76 2.82.486 1.3 1.121 2.28.636.978 1.361 1.529.726.55 1.483.55.931 0 1.587-.535t1.007-1.562q.352-1.026.352-2.517M71.585 7.843q0-.303.2-.473t.621-.17h3.822q.427 0 .63.169a.58.58 0 0 1 .202.47.53.53 0 0 1-.126.364q-.126.144-.407.272l-.395.162a1.8 1.8 0 0 0-.7.563q-.285.375-.539 1.182l-3.607 10.964q-.158.495-.225.789a2.7 2.7 0 0 0-.066.602v.629q0 .3-.188.468a.7.7 0 0 1-.478.166h-3.683a.67.67 0 0 1-.469-.166q-.18-.167-.18-.495v-.619q0-.198-.07-.455a11 11 0 0 0-.172-.573L61.619 9.566q-.136-.402-.29-.584a1.2 1.2 0 0 0-.43-.31l-.41-.16q-.463-.213-.463-.669 0-.303.204-.473.206-.17.63-.17h6.328q.434 0 .632.17.2.17.2.473 0 .24-.133.384a1.1 1.1 0 0 1-.411.257l-.597.17q-.31.119-.386.375t.099.78l3.895 11.638-1.258 1.107 4.083-12.309q.2-.603.06-.983-.14-.378-.746-.63l-.51-.157a1.3 1.3 0 0 1-.396-.248q-.135-.135-.135-.384m12.509 13.938q-.001.273.154.444.153.17.445.268l.587.159q.537.188.537.704a.6.6 0 0 1-.2.468q-.201.176-.626.176h-6.41q-.423 0-.624-.175a.59.59 0 0 1-.201-.469q0-.516.537-.704l.586-.159q.302-.098.45-.268.15-.171.15-.444V9.419q0-.273-.15-.444a1 1 0 0 0-.45-.268l-.586-.159q-.537-.187-.537-.705 0-.303.201-.473.202-.17.625-.17h6.409q.425 0 .625.17t.2.473q0 .518-.537.705l-.586.159a1.03 1.03 0 0 0-.445.268.64.64 0 0 0-.154.444zm17.759-.26q.263.382.454.59.192.208.416.32.225.111.556.22.284.115.44.284a.6.6 0 0 1 .157.422.59.59 0 0 1-.204.469q-.204.174-.628.174h-6.94q-.424 0-.628-.174a.58.58 0 0 1-.205-.465q0-.279.155-.447t.53-.298q.348-.102.495-.284a.54.54 0 0 0 .1-.448q-.046-.266-.276-.616l-7.749-11.74a4 4 0 0 0-.35-.473 1.5 1.5 0 0 0-.352-.298 2.3 2.3 0 0 0-.474-.21q-.34-.145-.462-.302a.64.64 0 0 1-.121-.402.58.58 0 0 1 .206-.473q.205-.17.628-.17h6.676q.434 0 .615.174a.62.62 0 0 1 .182.47.8.8 0 0 1-.097.419q-.097.162-.34.238l-.466.111q-.371.092-.416.306-.045.215.228.638zm-5.258-5.818-1.555-.467 3.804-5.13q.419-.572.355-.93-.064-.356-.541-.524l-.398-.121a.9.9 0 0 1-.354-.265.66.66 0 0 1-.136-.422q0-.303.192-.474.19-.17.6-.17h3.784q.831 0 .831.628 0 .25-.19.43a2.2 2.2 0 0 1-.571.364 2.55 2.55 0 0 0-.899.637q-.39.425-1.041 1.283zm-2.888-.476 1.546.56-4.125 5.41q-.444.591-.366.93t.522.5l.337.095a.9.9 0 0 1 .363.248.6.6 0 0 1 .118.386q0 .292-.196.468-.195.176-.595.176h-3.802q-.412 0-.618-.176a.59.59 0 0 1-.205-.47q0-.222.137-.383.135-.16.5-.33a4.8 4.8 0 0 0 .885-.512q.373-.278.693-.645.32-.366.68-.837z"/></svg>